# xmcd
#
# Track frame offsets:
#	150
#	18341
#	32939
#	46338
#	57474
#	71919
#	85218
#	98534
#	117130
#	128837
#	139501
#	152977
#
# Disc length: 2296 seconds
#
# Revision: 0
# Processed by: cddbd v1.5.2PL0 Copyright (c) Steve Scherf et al.
# Submitted via: audiograbber 1.83.01
#
DISCID=a008f60c
DTITLE=ZÉ RAMALHO - CANTA JACKSON DO PANDEIRO
DYEAR=1900
DGENRE=
TTITLE0=LAMENTO CEGO
TTITLE1=ELE DISSE
TTITLE2=FORRÓ DE SURUBIM
TTITLE3=FORRÓ NA GAFIEIRA
TTITLE4=O CANTO DA EMA
TTITLE5=SEBASTIANA-UM A UM-CHICLETE COM BANANA
TTITLE6=CHICLETE COM BANANA(WALDONYS)
TTITLE7=CANTIGA DO SAPO
TTITLE8=CASACA DE COURO
TTITLE9=QUADRO-NEGRO
TTITLE10=CABEÇA FEITA
TTITLE11=LÁ VAI A BOIADA
EXTD=
EXTT0=
EXTT1=
EXTT2=
EXTT3=
EXTT4=
EXTT5=
EXTT6=
EXTT7=
EXTT8=
EXTT9=
EXTT10=
EXTT11=
PLAYORDER=
